<?xml version="1.0" encoding="utf-8"?>
<!-- Generator: Adobe Illustrator 16.0.0, SVG Export Plug-In . SVG Version: 6.00 Build 0)  -->
<!DOCTYPE svg PUBLIC "-//W3C//DTD SVG 1.0//EN" "http://www.w3.org/TR/2001/REC-SVG-20010904/DTD/svg10.dtd">
<svg version="1.0" id="Layer_1" xmlns="http://www.w3.org/2000/svg" xmlns:xlink="http://www.w3.org/1999/xlink" x="0px" y="0px"
	 width="100px" height="100px" viewBox="0 0 100 100" enable-background="new 0 0 100 100" xml:space="preserve">
<path d="M53.333,20C57.454,23.412,60,28.125,60,33.333c0,5.524-4.479,10-10,10c-5.524,0-10-4.476-10-10
	C40,24.219,45.098,15.97,53.333,10c-16.569,0-30,14.922-30,33.333C23.331,58.06,35.27,70,50,70c14.727,0,26.667-11.94,26.667-26.667
	C76.667,30.449,66.221,20,53.333,20z"/>
<path d="M25.117,65.117c-0.114-6.399-5.391-11.677-11.784-11.784C13.438,59.727,18.717,65.007,25.117,65.117z"/>
<path d="M86.667,53.333c-6.4,0.114-11.677,5.391-11.784,11.784C81.276,65.013,86.556,59.733,86.667,53.333z"/>
<polygon points="79.98,76.504 78.479,70.007 50,76.582 21.519,70.007 20.02,76.504 35.177,80.003 20.02,83.503 21.519,90 50,83.425 
	78.479,90 79.98,83.503 64.824,80.003 "/>
</svg>
