<?xml version="1.0" encoding="utf-8"?>
<!-- Generator: Adobe Illustrator 16.0.0, SVG Export Plug-In . SVG Version: 6.00 Build 0)  -->
<!DOCTYPE svg PUBLIC "-//W3C//DTD SVG 1.0//EN" "http://www.w3.org/TR/2001/REC-SVG-20010904/DTD/svg10.dtd">
<svg version="1.0" id="Layer_1" xmlns="http://www.w3.org/2000/svg" xmlns:xlink="http://www.w3.org/1999/xlink" x="0px" y="0px"
	 width="100px" height="100px" viewBox="0 0 100 100" enable-background="new 0 0 100 100" xml:space="preserve">
<path d="M78.46,40.316C84.153,30.742,88.235,20.462,90,10c-10.462,1.764-20.742,5.846-30.319,11.537
	C68.386,24.645,75.352,31.615,78.46,40.316z"/>
<path d="M21.537,59.681C15.846,69.258,11.764,79.538,10,90c10.459-1.765,20.742-5.847,30.316-11.536
	C31.611,75.352,24.645,68.386,21.537,59.681z"/>
<path d="M33.167,43.773c-2.321,2.653-4.554,5.381-6.602,8.226c1.155,11.217,10.218,20.279,21.429,21.436
	c2.852-2.048,5.577-4.281,8.229-6.605L33.167,43.773z"/>
<path d="M82.93,73.503l-10.013-4.121l-9.479-9.479c3.594-3.757,6.979-7.712,9.997-11.908c-1.159-11.211-10.222-20.273-21.433-21.429
	c-4.196,3.018-8.148,6.403-11.904,9.997l-9.476-9.476h0.003L26.5,17.07L19.43,10L10,19.427l7.074,7.07l10.013,4.121L69.375,72.91
	v0.003l4.128,10.017l7.07,7.07L90,80.573L82.93,73.503z"/>
</svg>
