<?xml version="1.0" encoding="utf-8"?>
<!-- Generator: Adobe Illustrator 16.0.0, SVG Export Plug-In . SVG Version: 6.00 Build 0)  -->
<!DOCTYPE svg PUBLIC "-//W3C//DTD SVG 1.0//EN" "http://www.w3.org/TR/2001/REC-SVG-20010904/DTD/svg10.dtd">
<svg version="1.0" id="Layer_1" xmlns="http://www.w3.org/2000/svg" xmlns:xlink="http://www.w3.org/1999/xlink" x="0px" y="0px"
	 width="100px" height="100px" viewBox="0 0 100 100" enable-background="new 0 0 100 100" xml:space="preserve">
<path d="M52.832,10c-5.521,0-9.999,4.479-9.999,10s4.478,10,9.999,10c5.521,0,10-4.479,10-10S58.353,10,52.832,10z"/>
<polygon points="26.564,90 31.089,79.082 27.482,70.371 19.347,90 "/>
<path d="M22.876,64.069C15.729,63.821,10,57.985,10,50.781c0-11.045,11.945-20,26.667-20L22.876,64.069z"/>
<path d="M64.043,77.148L73.333,40h-6.871l-2.5,10h-9.135l-5.836-14.115l-6.164-2.552L31.089,61.667l6.074,14.661V90H90V69.733
	L64.043,77.148z M45.377,44.596l4.994,12.071h11.924l-5.647,22.598L43.83,82.927V75l-5.525-13.333L45.377,44.596z"/>
</svg>
